<?xml version="1.0" encoding="utf-8"?>
<!-- Generator: Adobe Illustrator 23.0.2, SVG Export Plug-In . SVG Version: 6.00 Build 0)  -->
<svg version="1.1" id="Layer_1" xmlns="http://www.w3.org/2000/svg" xmlns:xlink="http://www.w3.org/1999/xlink" x="0px" y="0px"
	 viewBox="0 0 345 133" style="enable-background:new 0 0 345 133;" xml:space="preserve">
<style type="text/css">
	.st0{fill:#FFFFFF;}
</style>
<g>
	<path class="st0" d="M3.3,108.5v10.7h0.1l5.2-10.7h3.5l-5.6,11.1l6,12.5H8.8l-5.4-11.8H3.3v11.8H0v-23.6H3.3z"/>
	<path class="st0" d="M14.8,129.1c-1-2.3-1.2-5.6-1.2-8.8c0-6.5,1.2-12.3,6.3-12.3c1.9,0,3.2,0.7,4.1,1.9l1.1-2.3l1.4,0.7l-1.6,3.2
		c1,2.3,1.2,5.6,1.2,8.8c0,6.5-1.2,12.3-6.2,12.3c-1.9,0-3.2-0.7-4.1-1.9l-1.1,2.3l-1.4-0.7L14.8,129.1z M22.3,113.7
		c-0.5-2.1-1.3-2.7-2.3-2.7c-1.7,0-2.8,2.4-2.8,9.8c0,1.2,0,2.3,0.1,3.3h0.1L22.3,113.7z M17.6,126.9c0.4,1.7,1.1,2.7,2.3,2.7
		c2.3,0,2.8-4,2.8-10.1c0-1.2,0-2.2-0.1-3h-0.1L17.6,126.9z"/>
	<path class="st0" d="M32.4,108.5v10.7h0.1l5.2-10.7h3.5l-5.6,11.1l6,12.5h-3.7l-5.4-11.8h-0.1v11.8h-3.3v-23.6H32.4z"/>
	<path class="st0" d="M47.3,108.5v10.7h0.1l5.2-10.7h3.5l-5.6,11.1l6,12.5h-3.7l-5.4-11.8h-0.1v11.8H44v-23.6H47.3z"/>
	<path class="st0" d="M67.4,108.5v2.8h-5.3v6.9h5.3v2.8h-5.3v8.3h5.3v2.8h-8.6v-23.6L67.4,108.5L67.4,108.5z"/>
	<path class="st0" d="M73.4,108.5l4.8,14.9h0.1v-14.9h3.1v23.6h-3.3l-4.8-14.9h-0.1v14.9h-3.1v-23.6H73.4z"/>
	<path class="st0" d="M92.7,108.5h4.6c5.3,0,6.6,3.4,6.6,5.9c0,2.6-0.9,4.1-3.2,5.1c2.7,0.9,3.7,3.1,3.7,5.8c0,2.2-0.8,6.9-7,6.9
		h-4.7V108.5z M95.9,118.2h0.5c2.3,0,4.1-0.9,4.1-3.5c0-2.2-1.1-3.4-4-3.4h-0.6V118.2z M95.9,129.3c3.4,0,5-1.1,5-4.2
		c0-2.9-1.5-4.3-4.5-4.3h-0.5V129.3z"/>
	<path class="st0" d="M114.3,108.5l5.3,23.6h-3.4l-0.9-4.9h-5.2l-0.9,4.9h-3.1l5-23.6H114.3z M114.7,124.6l-2.1-10.8h-0.1l-2.1,10.8
		H114.7z"/>
	<path class="st0" d="M122,108.5h3.8c6.2,0,7.9,5.9,7.9,12c0,5-1.6,11.6-7.7,11.6h-4L122,108.5L122,108.5z M125.3,129.3
		c3.9,0,5-4,5-9c0-5.8-1.7-9-5-9V129.3z"/>
	<path class="st0" d="M145,108.5h3.3v23.6H145V108.5z"/>
	<path class="st0" d="M155.5,108.5l4.8,14.9h0.1v-14.9h3.1v23.6h-3.3l-4.8-14.9h-0.1v14.9h-3.1v-23.6H155.5z"/>
	<path class="st0" d="M170.2,111.5H166v-2.9h11.6v2.9h-4.1v20.6h-3.3V111.5z"/>
	<path class="st0" d="M188.8,108.5v2.8h-5.3v6.9h5.3v2.8h-5.3v8.3h5.3v2.8h-8.6v-23.6L188.8,108.5L188.8,108.5z"/>
	<path class="st0" d="M191.6,108.5h5.3c3.6,0,6.1,2.5,6.1,6.5c0,2.4-1.3,5.1-4,5.8l4.8,11.3H200l-4.3-10.8h-0.8v10.8h-3.3
		L191.6,108.5L191.6,108.5z M194.9,118.5c3.2,0,4.7-1,4.7-3.8c0-2-1.3-3.5-3.6-3.5h-1.1V118.5z"/>
	<path class="st0" d="M206.7,108.5h3.3v23.6h-3.3V108.5z"/>
	<path class="st0" d="M214.5,129.1c-1-2.3-1.2-5.6-1.2-8.8c0-6.5,1.2-12.3,6.3-12.3c1.9,0,3.2,0.7,4.1,1.9l1.1-2.3l1.4,0.7l-1.6,3.2
		c1,2.3,1.2,5.6,1.2,8.8c0,6.5-1.2,12.3-6.2,12.3c-1.9,0-3.2-0.7-4.1-1.9l-1.1,2.3l-1.4-0.7L214.5,129.1z M221.9,113.7
		c-0.5-2.1-1.3-2.7-2.3-2.7c-1.7,0-2.8,2.4-2.8,9.8c0,1.2,0,2.3,0.1,3.3h0.1L221.9,113.7z M217.3,126.9c0.4,1.7,1.1,2.7,2.3,2.7
		c2.3,0,2.8-4,2.8-10.1c0-1.2,0-2.2-0.1-3h-0.1L217.3,126.9z"/>
	<path class="st0" d="M229,108.5h5.3c3.6,0,6.1,2.5,6.1,6.5c0,2.4-1.3,5.1-4,5.8l4.8,11.3h-3.8l-4.3-10.8h-0.8v10.8H229L229,108.5
		L229,108.5z M232.3,118.5c3.2,0,4.7-1,4.7-3.8c0-2-1.3-3.5-3.6-3.5h-1.1V118.5z"/>
	<path class="st0" d="M254.6,108.5v10.7h0.1l5.2-10.7h3.5l-5.6,11.1l6,12.5h-3.7l-5.4-11.8h-0.1v11.8h-3.3v-23.6H254.6z"/>
	<path class="st0" d="M271.3,108.1c5.6,0,6.2,6.2,6.2,12.3c0,6.5-1.2,12.3-6.2,12.3c-5.7,0-6.3-6.2-6.3-12.3
		C265,113.8,266.2,108.1,271.3,108.1z M271.3,129.7c2.3,0,2.8-4,2.8-10.1c0-7.1-1.2-8.6-2.8-8.6c-1.7,0-2.8,2.4-2.8,9.8
		C268.5,125.6,268.9,129.7,271.3,129.7z"/>
	<path class="st0" d="M283.7,108.5l4.8,14.9h0.1v-14.9h3.1v23.6h-3.2l-4.8-14.9h-0.1v14.9h-3.1v-23.6H283.7z"/>
	<path class="st0" d="M303.8,114.5c-0.4-2.5-1.3-3.5-2.4-3.5c-2.6,0-3.2,4.4-3.2,9c0,5.3,0.6,9.6,3.1,9.6c1.8,0,2.6-2.3,2.9-4.6
		l3.1,1.1c-0.5,3.5-2.2,6.4-6.1,6.4c-4.3,0-6.5-3.4-6.5-12.4c0-4.6,0.6-12.1,6.7-12.1c2.8,0,4.7,1.7,5.6,5.4L303.8,114.5z"/>
	<path class="st0" d="M318.8,108.5v2.8h-5.3v6.9h5.3v2.8h-5.3v8.3h5.3v2.8h-8.6v-23.6L318.8,108.5L318.8,108.5z"/>
	<path class="st0" d="M321.4,108.5h3.3c4.2,0,7.1,2,7.1,7.3c0,4.4-2.1,7.4-6.5,7.4h-0.5v8.9h-3.3L321.4,108.5L321.4,108.5z
		 M324.7,120.4c2.8,0,3.7-2.1,3.7-4.6c0-2.7-1.1-4.5-3.7-4.5V120.4z"/>
	<path class="st0" d="M337.6,111.5h-4.2v-2.9H345v2.9h-4.2v20.6h-3.3v-20.6H337.6z"/>
</g>
<g>
	<path class="st0" d="M12.2,39.7h15.7v12.5H12.2v36H0.1V1h32.1v12.5h-20L12.2,39.7L12.2,39.7z"/>
	<path class="st0" d="M64.9,88.2c-0.7-2.2-1.1-3.6-1.1-10.7V63.8c0-8.1-2.4-11.1-8-11.1h-4.2v35.5H39.5V1h18.3
		c12.6,0,18,6.6,18,20.1V28c0,9-2.5,14.7-8,17.6v0.2c6.1,2.9,8.1,9.3,8.1,18.4v13.5c0,4.2,0.1,7.4,1.3,10.6H64.9V88.2z M51.6,13.4
		v26.8h4.7c4.5,0,7.3-2.2,7.3-9.2v-8.6c0-6.2-1.9-9-6.2-9L51.6,13.4L51.6,13.4z"/>
	<path class="st0" d="M83.7,21.9c0-14,6.5-21.9,18.4-21.9s18.4,8,18.4,21.9v45.3c0,14-6.5,21.9-18.4,21.9s-18.4-8-18.4-21.9V21.9z
		 M95.8,68.1c0,6.2,2.4,8.6,6.3,8.6s6.3-2.4,6.3-8.6V21c0-6.2-2.4-8.6-6.3-8.6s-6.3,2.4-6.3,8.6V68.1z"/>
	<path class="st0" d="M140.1,25h-0.2v63.2H129V1h15.2l12.3,52.2h0.2V1h10.8v87.2H155L140.1,25z"/>
	<path class="st0" d="M174.5,1H212v12.5h-12.7v74.7h-12.1V13.4h-12.7V1z"/>
	<path class="st0" d="M231.2,37.7h16.7v12.5h-16.7v25.5h21v12.5h-33.1V1h33.1v12.5h-21V37.7z"/>
	<path class="st0" d="M271.4,25h-0.2v63.2h-10.9V1h15.2l12.3,52.2h0.2V1h10.8v87.2h-12.5L271.4,25z"/>
	<path class="st0" d="M307.7,1h19.2C339,1,345,8.6,345,22.6v44.1c0,14-6,21.6-18.1,21.6h-19.2V1z M319.9,13.4v62.3h6.8
		c3.9,0,6.2-2.2,6.2-8.5V21.8c0-6.2-2.3-8.5-6.2-8.5L319.9,13.4L319.9,13.4z"/>
</g>
</svg>
